<svg xmlns="http://www.w3.org/2000/svg" width="29" height="29" viewBox="0 0 29 29" fill="none">
  <path d="M2 10.3333H27M7.55556 2V4.77778M21.4444 2V4.77778M6.16667 14.5H8.94444M13.1111 14.5H15.8889M20.0556 14.5H22.8333M6.16667 18.6667H8.94444M13.1111 18.6667H15.8889M20.0556 18.6667H22.8333M6.16667 22.8333H8.94444M13.1111 22.8333H15.8889M20.0556 22.8333H22.8333M6.44444 27H22.5556C24.1112 27 24.8892 27 25.4833 26.6972C26.006 26.431 26.431 26.006 26.6972 25.4833C27 24.8892 27 24.1112 27 22.5556V9.22222C27 7.66651 27 6.88867 26.6972 6.29447C26.431 5.77179 26.006 5.34685 25.4833 5.08054C24.8892 4.77778 24.1112 4.77778 22.5556 4.77778H6.44444C4.88875 4.77778 4.11089 4.77778 3.51669 5.08054C2.99401 5.34685 2.56907 5.77179 2.30276 6.29447C2 6.88867 2 7.66651 2 9.22222V22.5556C2 24.1112 2 24.8892 2.30276 25.4833C2.56907 26.006 2.99401 26.431 3.51669 26.6972C4.11089 27 4.88874 27 6.44444 27Z" stroke="#D9D9D9" stroke-width="3" stroke-linecap="round"/>
</svg>