<svg xmlns="http://www.w3.org/2000/svg" width="169" height="30" viewBox="0 0 169 30" fill="none">
  <path d="M0.668945 30V0.909088H19.9303V5.98011H6.81951V12.9119H18.6519V17.983H6.81951V30H0.668945Z" fill="white"/>
  <path d="M24.0674 30V0.909088H30.218V24.929H42.6895V30H24.0674Z" fill="white"/>
  <path d="M46.7627 30V0.909088H66.365V5.98011H52.9133V12.9119H65.3564V17.983H52.9133V24.929H66.4218V30H46.7627Z" fill="white"/>
  <path d="M77.0219 0.909088L82.8884 10.8239H83.1157L89.0106 0.909088H95.9566L87.0788 15.4545L96.1554 30H89.0816L83.1157 20.071H82.8884L76.9225 30H69.877L78.9822 15.4545L70.0475 0.909088H77.0219Z" fill="white"/>
  <path d="M105.999 0.909088V30H99.8486V0.909088H105.999Z" fill="white"/>
  <path d="M111.06 30V0.909088H130.321V5.98011H117.21V12.9119H129.043V17.983H117.21V30H111.06Z" fill="#C10000"/>
  <path d="M140.609 0.909088V30H134.458V0.909088H140.609Z" fill="#C10000"/>
  <path d="M144.561 5.98011V0.909088H168.453V5.98011H159.547V30H153.467V5.98011H144.561Z" fill="#C10000"/>
</svg>