<svg xmlns="http://www.w3.org/2000/svg" width="48" height="45" viewBox="0 0 48 45" fill="none">
  <path d="M35.2 16.5H37.3333C37.9221 16.5 38.4 16.948 38.4 17.5V27.5C38.4 28.052 37.9221 28.5 37.3333 28.5H35.2C34.6112 28.5 34.1333 28.052 34.1333 27.5V17.5C34.1333 16.948 34.6112 16.5 35.2 16.5Z" stroke="#D9D9D9" stroke-width="3"/>
  <path d="M30.9334 12.5H33.0667C33.6555 12.5 34.1334 12.948 34.1334 13.5V31.5C34.1334 32.052 33.6555 32.5 33.0667 32.5H30.9334C30.3446 32.5 29.8667 32.052 29.8667 31.5V13.5C29.8667 12.948 30.3446 12.5 30.9334 12.5Z" stroke="#D9D9D9" stroke-width="3"/>
  <path d="M15.9998 12.5H18.1331C18.7219 12.5 19.1998 12.948 19.1998 13.5V31.5C19.1998 32.052 18.7219 32.5 18.1331 32.5H15.9998C15.411 32.5 14.9331 32.052 14.9331 31.5V13.5C14.9331 12.948 15.411 12.5 15.9998 12.5Z" stroke="#D9D9D9" stroke-width="3"/>
  <path d="M11.7332 16.5H13.8665C14.4553 16.5 14.9332 16.948 14.9332 17.5V27.5C14.9332 28.052 14.4553 28.5 13.8665 28.5H11.7332C11.1444 28.5 10.6665 28.052 10.6665 27.5V17.5C10.6665 16.948 11.1444 16.5 11.7332 16.5Z" stroke="#D9D9D9" stroke-width="3"/>
  <path d="M38.3999 22.5H41.5999" stroke="#D9D9D9" stroke-width="3"/>
  <path d="M19.2002 22.5H29.8669" stroke="#D9D9D9" stroke-width="3"/>
  <path d="M7.4668 22.5H10.6668" stroke="#D9D9D9" stroke-width="3"/>
</svg>