<svg xmlns="http://www.w3.org/2000/svg" width="26" height="26" viewBox="0 0 26 26" fill="none">
  <g clip-path="url(#clip0_3_251)">
    <path fill-rule="evenodd" clip-rule="evenodd" d="M21.5313 23.4H4.46963C3.55132 23.4 2.8732 22.4939 3.21955 21.6606C4.82659 17.8074 8.60201 15.6 12.9998 15.6C17.3989 15.6 21.1743 17.8074 22.7814 21.6606C23.1277 22.4939 22.4496 23.4 21.5313 23.4ZM7.69167 7.79998C7.69167 4.93218 10.0737 2.59998 12.9998 2.59998C15.9272 2.59998 18.3079 4.93218 18.3079 7.79998C18.3079 10.6678 15.9272 13 12.9998 13C10.0737 13 7.69167 10.6678 7.69167 7.79998ZM25.9424 22.9268C24.9776 18.5601 21.9599 15.3373 17.9881 13.8748C20.0928 12.2147 21.3203 9.53021 20.8691 6.59091C20.3463 3.18101 17.4507 0.45237 13.9553 0.0545699C9.13018 -0.49533 5.03759 3.18368 5.03759 7.79998C5.03759 10.257 6.20008 12.4461 8.01281 13.8748C4.03967 15.3373 1.02331 18.5601 0.0572312 22.9268C-0.293106 24.5141 1.0127 26 2.67016 26H23.3294C24.9882 26 26.294 24.5141 25.9424 22.9268Z" fill="#D9D9D9"/>
  </g>
  <defs>
    <clipPath id="clip0_3_251">
      <rect width="26" height="26" fill="white"/>
    </clipPath>
  </defs>
</svg>