<svg width="24" height="17" viewBox="0 0 24 17" fill="none" xmlns="http://www.w3.org/2000/svg">
<path d="M12.0001 0.333313C6.91924 0.333313 2.53174 3.30165 0.462578 7.59165C0.202578 8.13331 0.202578 8.78331 0.462578 9.32498C2.53174 13.615 6.91924 16.5833 12.0001 16.5833C17.0809 16.5833 21.4684 13.615 23.5376 9.32498C23.7976 8.78331 23.7976 8.13331 23.5376 7.59165C21.4684 3.30165 17.0809 0.333313 12.0001 0.333313ZM12.0001 13.3333C9.31341 13.3333 7.12508 11.145 7.12508 8.45831C7.12508 5.77165 9.31341 3.58331 12.0001 3.58331C14.6867 3.58331 16.8751 5.77165 16.8751 8.45831C16.8751 11.145 14.6867 13.3333 12.0001 13.3333Z" fill="white"/>
<path d="M12.0002 11.3833C13.6156 11.3833 14.9252 10.0738 14.9252 8.45832C14.9252 6.84289 13.6156 5.53333 12.0002 5.53333C10.3848 5.53333 9.0752 6.84289 9.0752 8.45832C9.0752 10.0738 10.3848 11.3833 12.0002 11.3833Z" fill="white"/>
</svg>
