<svg width="112" height="107" viewBox="0 0 112 107" fill="none" xmlns="http://www.w3.org/2000/svg">
<g clip-path="url(#clip0_8_7)">
<path d="M105 11.4159L100.051 6.6875L7 95.5841L11.9493 100.312L18.9494 93.625H91C92.8558 93.6226 94.6348 92.9173 95.947 91.6636C97.2592 90.41 97.9975 88.7104 98 86.9375V18.1034L105 11.4159ZM91 86.9375H25.9494L53.2245 60.8797L61.5503 68.8334C62.8631 70.0876 64.6435 70.7921 66.5 70.7921C68.3565 70.7921 70.1369 70.0876 71.4497 68.8334L77 63.5312L91 76.8972V86.9375ZM91 67.4374L81.9497 58.7908C80.6369 57.5367 78.8565 56.8321 77 56.8321C75.1435 56.8321 73.3631 57.5367 72.0503 58.7908L66.5 64.0937L58.1805 56.1452L91 24.7909V67.4374Z" fill="#8D8D8D"/>
<path d="M21 73.5625V63.5312L38.5 46.8239L43.3065 51.4158L48.2622 46.6811L43.4497 42.0834C42.1369 40.8293 40.3565 40.1248 38.5 40.1248C36.6435 40.1248 34.8631 40.8293 33.5503 42.0834L21 54.0738V20.0625H77V13.375H21C19.1441 13.3768 17.3647 14.0819 16.0523 15.3357C14.7399 16.5894 14.0019 18.2894 14 20.0625V73.5625H21Z" fill="#8D8D8D"/>
</g>
<defs>
<clipPath id="clip0_8_7">
<rect width="112" height="107" fill="white"/>
</clipPath>
</defs>
</svg>
