<svg width="1920" height="1080" viewBox="0 0 1920 1080" fill="none" xmlns="http://www.w3.org/2000/svg">
<g clip-path="url(#clip0_36_322)">
<path d="M200.638 -262.598C336.418 -243.035 446.725 -179.349 531.557 -71.5415C616.388 36.2655 726.696 99.9521 862.475 119.514C998.255 139.077 1108.56 202.763 1193.39 310.57C1278.23 418.378 1388.53 482.064 1524.31 501.626C1660.09 521.189 1770.4 584.875 1855.23 692.682C1940.06 800.489 2050.37 864.176 2186.15 883.738" stroke="#EEEEEE" stroke-opacity="0.05"/>
<path d="M198.728 -259.288C334.508 -239.726 444.815 -176.04 529.647 -68.2323C614.478 39.5747 724.786 103.261 860.565 122.824C996.344 142.386 1106.65 206.072 1191.48 313.88C1276.31 421.687 1386.62 485.373 1522.4 504.936C1658.18 524.498 1768.49 588.184 1853.32 695.992C1938.15 803.799 2048.46 867.485 2184.24 887.048" stroke="white" stroke-opacity="0.05"/>
</g>
<g clip-path="url(#clip1_36_322)">
<path d="M42.141 -42.1122C177.921 -22.5494 288.228 41.1361 373.06 148.944C457.891 256.751 568.199 320.437 703.978 340C839.758 359.562 950.066 423.249 1034.9 531.056C1119.73 638.863 1230.04 702.549 1365.82 722.112C1501.59 741.674 1611.9 805.361 1696.73 913.168C1781.57 1020.97 1891.87 1084.66 2027.65 1104.22" stroke="#EEEEEE" stroke-opacity="0.05"/>
<path d="M40.2308 -38.803C176.011 -19.2402 286.318 44.4452 371.15 152.253C455.981 260.06 566.289 323.747 702.068 343.309C837.847 362.871 948.156 426.558 1032.99 534.365C1117.82 642.172 1228.13 705.859 1363.91 725.421C1499.68 744.983 1609.99 808.67 1694.82 916.477C1779.66 1024.28 1889.96 1087.97 2025.74 1107.53" stroke="white" stroke-opacity="0.05"/>
</g>
<g clip-path="url(#clip2_36_322)">
<path d="M144.427 -132.814C280.207 -113.251 390.514 -49.566 475.346 58.2418C560.177 166.049 670.485 229.735 806.264 249.298C942.044 268.86 1052.35 332.547 1137.18 440.354C1222.01 548.161 1332.32 611.847 1468.1 631.41C1603.88 650.972 1714.19 714.659 1799.02 822.466C1883.85 930.273 1994.16 993.959 2129.94 1013.52" stroke="#EEEEEE" stroke-opacity="0.05"/>
<path d="M142.517 -129.505C278.297 -109.942 388.604 -46.2568 473.436 61.551C558.267 169.358 668.575 233.045 804.354 252.607C940.134 272.169 1050.44 335.856 1135.27 443.663C1220.1 551.47 1330.41 615.157 1466.19 634.719C1601.97 654.281 1712.28 717.968 1797.11 825.775C1881.94 933.582 1992.25 997.269 2128.03 1016.83" stroke="white" stroke-opacity="0.05"/>
</g>
<g clip-path="url(#clip3_36_322)">
<path d="M-12.3566 79.3001C123.424 98.8629 233.73 162.548 318.562 270.356C403.393 378.163 513.702 441.85 649.481 461.412C785.26 480.974 895.568 544.661 980.399 652.468C1065.23 760.275 1175.54 823.962 1311.32 843.524C1447.1 863.086 1557.41 926.773 1642.24 1034.58C1727.07 1142.39 1837.38 1206.07 1973.16 1225.64" stroke="#EEEEEE" stroke-opacity="0.05"/>
<path d="M-14.2667 82.6093C121.514 102.172 231.82 165.858 316.652 273.665C401.483 381.472 511.791 445.159 647.571 464.721C783.35 484.283 893.658 547.97 978.489 655.777C1063.32 763.584 1173.63 827.271 1309.41 846.833C1445.19 866.395 1555.5 930.082 1640.33 1037.89C1725.16 1145.7 1835.47 1209.38 1971.25 1228.95" stroke="white" stroke-opacity="0.05"/>
</g>
<g clip-path="url(#clip4_36_322)">
<path d="M-170.854 299.785C-35.0734 319.348 75.233 383.033 160.065 490.841C244.896 598.648 355.205 662.335 490.984 681.897C626.763 701.459 737.071 765.146 821.902 872.953C906.733 980.76 1017.04 1044.45 1152.82 1064.01C1288.6 1083.57 1398.91 1147.26 1483.74 1255.07C1568.57 1362.87 1678.88 1426.56 1814.66 1446.12" stroke="#EEEEEE" stroke-opacity="0.05"/>
<path d="M-172.764 303.094C-36.9836 322.657 73.3229 386.343 158.155 494.15C242.986 601.957 353.294 665.644 489.074 685.206C624.853 704.768 735.161 768.455 819.992 876.262C904.823 984.069 1015.13 1047.76 1150.91 1067.32C1286.69 1086.88 1397 1150.57 1481.83 1258.37C1566.66 1366.18 1676.97 1429.87 1812.75 1449.43" stroke="white" stroke-opacity="0.05"/>
</g>
<g clip-path="url(#clip5_36_322)">
<path d="M-68.5675 209.083C67.2127 228.646 177.519 292.331 262.351 400.139C347.182 507.946 457.491 571.633 593.27 591.195C729.049 610.757 839.358 674.444 924.189 782.251C1009.02 890.058 1119.33 953.745 1255.11 973.307C1390.89 992.869 1501.19 1056.56 1586.03 1164.36C1670.86 1272.17 1781.17 1335.86 1916.94 1355.42" stroke="#EEEEEE" stroke-opacity="0.05"/>
<path d="M-70.4777 212.392C65.3026 231.955 175.609 295.641 260.441 403.448C345.272 511.255 455.58 574.942 591.36 594.504C727.139 614.067 837.447 677.753 922.278 785.56C1007.11 893.367 1117.42 957.054 1253.2 976.616C1388.98 996.179 1499.28 1059.87 1584.12 1167.67C1668.95 1275.48 1779.26 1339.17 1915.03 1358.73" stroke="white" stroke-opacity="0.05"/>
</g>
<defs>
<clipPath id="clip0_36_322">
<rect width="2300.31" height="87.8858" fill="white" transform="translate(218.345 -300.909) rotate(30)"/>
</clipPath>
<clipPath id="clip1_36_322">
<rect width="2300.31" height="87.8858" fill="white" transform="translate(59.8481 -80.4238) rotate(30)"/>
</clipPath>
<clipPath id="clip2_36_322">
<rect width="2300.31" height="87.8858" fill="white" transform="translate(162.134 -171.126) rotate(30)"/>
</clipPath>
<clipPath id="clip3_36_322">
<rect width="2300.31" height="87.8858" fill="white" transform="translate(5.35059 40.9885) rotate(30)"/>
</clipPath>
<clipPath id="clip4_36_322">
<rect width="2300.31" height="87.8858" fill="white" transform="translate(-153.146 261.474) rotate(30)"/>
</clipPath>
<clipPath id="clip5_36_322">
<rect width="2300.31" height="87.8858" fill="white" transform="translate(-50.8604 170.772) rotate(30)"/>
</clipPath>
</defs>
</svg>
